<svg xmlns="http://www.w3.org/2000/svg" width="24" height="24" viewBox="0 0 24 24">
  <path d="M18.71 19.5c-.83 1.24-1.71 2.45-3.05 2.47-1.34.02-1.77-.79-3.29-.79-1.53 0-2 .77-3.27.81-1.31.04-2.3-1.32-3.05-2.55-1.66-2.44-2.92-6.89-1.22-9.9 1.1-1.9 3.04-3.1 5.09-3.14 1.28-.02 2.5.87 3.29.87.78 0 2.26-1.07 3.81-.91.65.03 2.47.26 3.64 1.98-.09.06-2.17 1.27-2.15 3.81.02 3.02 2.65 4.03 2.68 4.04-.03.06-.42 1.44-1.38 2.86M13 3.5c.73-.83 1.22-2 1.07-3.16-1.02.04-2.25.69-2.98 1.52-.65.74-1.22 1.94-1.07 3.09 1.15.09 2.35-.61 3-1.45"/>
</svg>
